PathFileType	4	(X/Y/Z)	RBDS022\RBDS022runT35.trc
DataRate	CameraRate	NumFrames	NumMarkers	Units	OrigDataRate	OrigDataStartFrame	OrigNumFrames
150.000000	150.000000	4	33	mm	150.000000	1125	4500
Frame#	Time	L.ASIS			L.Heel.Bottom			L.Heel.Lateral			L.Heel.Top			L.Iliac.Crest			L.MT1			L.MT5			L.PSIS			L.Shank.Bottom.Lateral			L.Shank.Bottom.Medial			L.Shank.Top.Lateral			L.Shank.Top.Medial			L.Thigh.Bottom.Lateral			L.Thigh.Bottom.Medial			L.Thigh.Top.Lateral			L.Thigh.Top.Medial			R.ASIS			R.ASY			R.Heel.Bottom			R.Heel.Lateral			R.Heel.Top			R.Iliac.Crest			R.MT1			R.MT5			R.PSIS			R.Shank.Bottom.Lateral			R.Shank.Bottom.Medial			R.Shank.Top.Lateral			R.Shank.Top.Medial			R.Thigh.Bottom.Lateral			R.Thigh.Bottom.Medial			R.Thigh.Top.Lateral			R.Thigh.Top.Medial			
		X1	Y1	Z1	X2	Y2	Z2	X3	Y3	Z3	X4	Y4	Z4	X5	Y5	Z5	X6	Y6	Z6	X7	Y7	Z7	X8	Y8	Z8	X9	Y9	Z9	X10	Y10	Z10	X11	Y11	Z11	X12	Y12	Z12	X13	Y13	Z13	X14	Y14	Z14	X15	Y15	Z15	X16	Y16	Z16	X17	Y17	Z17	X18	Y18	Z18	X19	Y19	Z19	X20	Y20	Z20	X21	Y21	Z21	X22	Y22	Z22	X23	Y23	Z23	X24	Y24	Z24	X25	Y25	Z25	X26	Y26	Z26	X27	Y27	Z27	X28	Y28	Z28	X29	Y29	Z29	X30	Y30	Z30	X31	Y31	Z31	X32	Y32	Z32	X33	Y33	Z33	

1126	7.500000000000001	2231.848059826927	961.0332430055932	880.2539095175738	1681.073581761968	155.8916219305579	977.2847605351378	1716.585739013169	154.8891457423387	930.2513865388246	1713.454410186206	188.1169734127922	976.1163224847372	2169.315261259434	1047.347333603168	838.7715903852234	1862.130677044344	44.30347908729364	1005.468781464347	1824.838033033532	52.35128701895639	894.0220350869729	2068.950718545644	1011.110132670775	961.4986377281025	1815.103766082155	239.2248671556009	903.9037126700196	1785.495082492304	266.2846313965206	942.1979820500762	1850.676342732464	308.2126098755481	883.2307104999338	1822.156898473143	335.5285742941703	920.0490938886308	2057.763631721729	615.3807258415579	845.4739427241115	2000.037826945327	638.6467557491608	883.6628989837694	2082.901331075473	719.089023995102	821.6542203253555	2028.955923587691	741.1411125787312	860.1939699550962	2234.703893689889	968.1592354632797	1115.950610903118	2303.305620388174	107.8497638959355	1076.257769774411	2110.139028683614	113.6288451163291	1055.539057247727	2141.265779695163	125.2524821324426	1102.419573480053	2131.506457541515	152.5501204152974	1055.039727182873	2172.65744027242	1041.716488689741	1162.43416718565	2315.48124867602	56.74009222851311	1032.318877835713	2285.681147686824	62.67586717712144	1141.719206001697	2070.603870420091	1008.059302558909	1048.80444278811	2208.53831654429	231.4642051644939	1119.568521189035	2178.449169925281	250.7304137361755	1082.349962563946	2237.252636503484	310.1573081039893	1134.693680168267	2201.378376737917	326.8053000189677	1098.644297005328	2321.391901048888	626.9353023874353	1149.194925640084	2264.253821023256	598.7139894334221	1118.232440091299	2266.479009305465	719.9206850057476	1170.159337623297	2209.452436210079	690.9208687112069	1145.071201714541	
1127	7.506666666666667	2234.581872814906	963.3346377613175	881.3573631471032	1669.786786956016	170.2983927206169	976.5452316452408	1705.014087569736	166.5292768028691	929.4178281781565	1704.266998239808	200.2086695376388	975.0306468482486	2174.233311878218	1051.092417317269	839.7790013270602	1842.778976919027	46.63763385280433	1004.715114223994	1805.813598944014	56.37303099560469	893.5844691791045	2071.380724906498	1014.356801870829	961.1968798194565	1804.141963695675	246.9279523822781	902.8802188606638	1774.881110268638	273.6942495342557	941.6914119567156	1839.931474164325	316.0441956177478	882.7724165603046	1811.565851732977	343.0927890481287	919.912805883929	2051.639889650181	621.5941712616382	845.6835979182601	1995.088944409898	646.6633251706114	884.662837966684	2079.804045647886	724.4524828369882	821.6688766266341	2026.881314656572	748.1444235231186	860.8960096573621	2235.627299556664	972.0566028237532	1116.439521514513	2331.995675333369	106.2794623172909	1076.433904490688	2139.667335499117	98.08562731148182	1052.686243850463	2169.026281574609	111.7814156224289	1100.074797493219	2158.007532702926	138.3826053098396	1052.650239172215	2173.059330544243	1046.690311741336	1162.789930651239	2348.578100643986	56.5766263056213	1032.571028284746	2316.688028945528	59.86763066239158	1141.559256547083	2072.211017969298	1011.688803845031	1048.796941390964	2227.75417067687	223.0754114144448	1118.387404891767	2197.272329844478	240.1900370994884	1080.505793017943	2250.554321452957	303.489849735242	1134.116974671157	2214.418083584602	317.6561461035533	1097.290666456922	2319.673831457978	628.6445616082021	1149.047640403047	2261.910696597646	600.9028170995778	1118.668001364697	2265.553944730657	722.1432281554611	1170.197253213955	2208.223518420116	693.76967332942	1145.179280209587	
1128	7.513333333333334	2237.124301490018	965.4073160414168	882.3840195384928	1659.646161841269	184.8998535788622	975.9387091772518	1694.384433907678	178.4865489448909	928.6940333821168	1696.092265613079	212.3762796545764	974.0853771616502	2179.217355078633	1054.637751965239	840.7666328629665	1824.024283345157	49.59838238473094	1003.861467391057	1787.332508943389	61.2172053469786	893.1653594647863	2073.736255369974	1017.430869211446	960.8862420666578	1794.12984572479	254.5188120200286	901.9312734063035	1765.157693247456	281.0671412346944	941.153934654618	1830.231187501853	323.7052586092174	882.3643401119067	1802.012225742437	350.5569374770503	919.7630281598404	2046.51883351512	627.3433478034344	846.0722893122877	1991.0755427258	654.0246653999352	885.7606264193249	2077.322182235108	729.3190165383003	821.7364702873314	2025.394049749299	754.5040947422183	861.6243640750513	2236.538970340822	975.4688313623092	1116.804964317778	2359.835900310397	106.2312243865577	1076.571163255262	2169.486541886472	84.01843680378484	1049.567017278168	2196.923863092506	99.59797208537582	1097.495972587682	2184.63953405346	125.4661018004801	1050.039101188985	2173.28796561208	1051.15949872519	1163.034018593951	2380.710396379909	58.34073746090235	1032.804718403334	2346.988173610658	58.68517558222182	1141.352860400932	2073.875611186489	1015.032420461679	1048.756321815467	2246.634477156936	215.4448848308847	1117.066036626273	2215.956791669062	230.4712627578082	1078.500169669222	2263.487551643535	297.1139043896525	1133.412047267009	2227.32556290197	308.8702317373375	1095.775164827871	2317.348140878004	629.4936016716658	1149.151331576282	2259.004001941237	602.377596913289	1119.180412990853	2264.201803300927	723.6311768856364	1170.389912953143	2206.582153998707	696.0025834779689	1145.332564824951	
1129	7.52	2239.421298096294	967.219586572473	883.3146647970468	1650.498554303937	199.5810149493988	975.5426599271477	1684.551423856884	190.7133454281213	928.1432378719778	1688.737200275941	224.5585032836475	973.356019701997	2184.163864146285	1057.916514128807	841.7136703333241	1805.885596342206	53.25574923163318	1002.897517401475	1769.420047758826	66.95950058259685	892.7585540606972	2075.966099211432	1020.309332492152	960.5614388375964	1784.970342710461	262.0027160387107	901.1033557137612	1756.259319599508	288.4522708316014	940.6272601307072	1821.545037159252	331.146898812893	882.0289709529011	1793.50322087264	357.9114576143889	919.6190220880495	2042.496925102507	632.4236294937833	846.6425432044786	1988.032993080064	660.5045737178053	886.8940034396508	2075.534469908316	733.5236471317282	821.889937520948	2024.505882711685	760.0368936720981	862.3357948728923	2237.410651887543	978.334379708368	1117.054491369636	2386.472586570099	107.6587916163883	1076.637870108848	2199.170614874049	71.5414689404501	1046.258019623586	2224.596602374992	88.75660214002022	1094.751984720836	2211.01586649044	113.9024493696862	1047.303797808431	2173.372259721365	1055.027370769017	1163.17799203218	2411.450725406466	62.00445045918205	1032.935357097515	2376.268318256922	59.02241285339333	1141.011850156298	2075.543616334015	1018.046049914706	1048.67631732031	2264.934686140968	208.6324923444037	1115.629813736724	2234.227189227035	221.6829463013944	1076.383312190553	2275.899461733761	291.1028187881003	1132.589654924966	2239.916298842345	300.5690582561449	1094.139132742958	2314.4802817665	629.5322588438689	1149.562763078746	2255.658022336811	603.1836897766406	1119.742197691857	2262.436498533418	724.4007543322526	1170.795081520125	2204.58540503129	697.6180095253306	1145.528624184343	
